<svg version="1.1" viewBox="0 0 96 96" xmlns="http://www.w3.org/2000/svg" xmlns:xlink="http://www.w3.org/1999/xlink" id="Icons_ShoppingCart" overflow="hidden"><path d=" M 31 31 L 20 31 L 20 24 L 31 24 L 31 31 Z M 46 24 L 46 31 L 35 31 L 35 24 L 46 24 Z M 61 24 L 61 31 L 50 31 L 50 24 L 61 24 Z M 76 24 L 76 31 L 65 31 L 65 24 L 76 24 Z M 76 42 L 65 42 L 65 35 L 76 35 L 76 42 Z M 76 50.5 L 65 51.5 L 65 46 L 76 46 L 76 50.5 Z M 31 46 L 31 54.5 L 20 55.5 L 20 46 L 31 46 Z M 31 42 L 20 42 L 20 35 L 31 35 L 31 42 Z M 46 42 L 35 42 L 35 35 L 46 35 L 46 42 Z M 50 42 L 50 35 L 61 35 L 61 42 L 50 42 Z M 46 53.2 L 35 54.2 L 35 46 L 46 46 L 46 53.2 Z M 50 46 L 61 46 L 61 51.8 L 50 52.8 L 50 46 Z M 82 56 L 82 18 L 20 18 L 20 17 C 20 12 16 8 11 8 C 9.3 8 8 9.3 8 11 C 8 12.7 9.3 14 11 14 C 12.7 14 14 15.3 14 17 L 14 67 C 14 72 18 76 23 76 L 26 76 L 70 76 L 79 76 C 80.7 76 82 74.7 82 73 C 82 71.3 80.7 70 79 70 L 23 70 C 21.3 70 20 68.7 20 67 L 20 61.5 L 82 56 Z"/><circle cx="26" cy="82" r="6"/><circle cx="70" cy="82" r="6"/></svg>